<svg width="50" height="50" viewBox="0 0 50 50" fill="none" xmlns="http://www.w3.org/2000/svg">
<g filter="url(#filter0_d_223_433)">
<path d="M35.2188 0H10.7812C4.82693 0 0 4.82693 0 10.7812V35.2188C0 41.1731 4.82693 46 10.7812 46H35.2188C41.1731 46 46 41.1731 46 35.2188V10.7812C46 4.82693 41.1731 0 35.2188 0Z" fill="#5865F2"/>
<path d="M10.7812 1H35.2188C40.6208 1 45 5.37921 45 10.7812V35.2188C45 40.6208 40.6208 45 35.2188 45H10.7812C5.37921 45 1 40.6208 1 35.2188V10.7812C1 5.37921 5.37921 1 10.7812 1Z" stroke="#0A090B" stroke-width="2"/>
</g>
<mask id="mask0_223_433" style="mask-type:luminance" maskUnits="userSpaceOnUse" x="4" y="8" width="38" height="31">
<path d="M5.03125 9.16406H40.9688V37.003H5.03125V9.16406Z" fill="white" stroke="white" stroke-width="2"/>
</mask>
<g mask="url(#mask0_223_433)">
<path d="M35.4538 11.6428C33.1239 10.5733 30.6651 9.81063 28.1389 9.37392C28.1159 9.36968 28.0922 9.37277 28.0711 9.38277C28.05 9.39277 28.0326 9.40917 28.0214 9.42963C27.7055 9.99133 27.3554 10.7245 27.1105 11.3005C24.3482 10.8869 21.6002 10.8869 18.8947 11.3005C18.6496 10.7115 18.287 9.99133 17.9696 9.42963C17.9579 9.40959 17.9404 9.39355 17.9194 9.38362C17.8984 9.37368 17.8749 9.3703 17.852 9.37392C15.3256 9.80975 12.8666 10.5725 10.5371 11.6428C10.5171 11.6513 10.5003 11.6657 10.4889 11.6842C5.82996 18.6445 4.55382 25.4339 5.17985 32.1391C5.18159 32.1555 5.18663 32.1714 5.19465 32.1859C5.20268 32.2003 5.21353 32.213 5.22657 32.2232C8.3003 34.4806 11.2779 35.8511 14.2002 36.7594C14.2229 36.7662 14.2472 36.7658 14.2697 36.7584C14.2922 36.7511 14.312 36.737 14.3263 36.718C15.0176 35.774 15.6337 34.7787 16.1622 33.732C16.1694 33.7177 16.1736 33.7019 16.1744 33.6859C16.1751 33.6698 16.1725 33.6538 16.1666 33.6388C16.1607 33.6239 16.1517 33.6103 16.1402 33.5991C16.1287 33.5879 16.1149 33.5792 16.0998 33.5737C15.1223 33.2028 14.1917 32.7509 13.2965 32.2375C13.2802 32.2279 13.2665 32.2145 13.2566 32.1983C13.2468 32.1822 13.241 32.1639 13.2399 32.145C13.2388 32.1261 13.2423 32.1072 13.2502 32.09C13.2581 32.0728 13.2701 32.0578 13.2852 32.0464C13.474 31.9052 13.6596 31.7597 13.8419 31.6101C13.8578 31.5969 13.8771 31.5884 13.8976 31.5856C13.9182 31.5828 13.939 31.5858 13.9579 31.5943C19.8395 34.2795 26.2067 34.2795 32.0187 31.5943C32.0377 31.5853 32.0588 31.5818 32.0796 31.5844C32.1005 31.5869 32.1201 31.5953 32.1364 31.6086C32.3188 31.7591 32.5049 31.9051 32.6945 32.0464C32.7096 32.0577 32.7217 32.0726 32.7297 32.0897C32.7378 32.1069 32.7414 32.1257 32.7405 32.1446C32.7395 32.1635 32.7339 32.1818 32.7241 32.198C32.7144 32.2142 32.7008 32.2278 32.6846 32.2375C31.7889 32.7605 30.8507 33.207 29.8799 33.5723C29.8648 33.578 29.8511 33.5869 29.8397 33.5983C29.8283 33.6097 29.8194 33.6234 29.8137 33.6385C29.8079 33.6536 29.8054 33.6697 29.8063 33.6858C29.8072 33.7019 29.8115 33.7177 29.819 33.732C30.3566 34.7704 30.9696 35.7679 31.6532 36.7166C31.6671 36.736 31.6868 36.7506 31.7094 36.7583C31.732 36.7659 31.7565 36.7663 31.7794 36.7594C34.7158 35.8511 37.6934 34.4806 40.7673 32.2232C40.7805 32.2135 40.7915 32.2011 40.7995 32.1868C40.8076 32.1726 40.8125 32.1568 40.814 32.1405C41.5633 24.3886 39.5589 17.6548 35.5005 11.6856C35.4906 11.6662 35.474 11.651 35.4538 11.6428ZM17.0405 28.0564C15.2697 28.0564 13.8106 26.4308 13.8106 24.4343C13.8106 22.4377 15.2415 20.8121 17.0405 20.8121C18.8535 20.8121 20.2984 22.4521 20.27 24.4343C20.27 26.4308 18.8393 28.0564 17.0405 28.0564ZM28.9818 28.0564C27.211 28.0564 25.7521 26.4308 25.7521 24.4343C25.7521 22.4377 27.1828 20.8121 28.9818 20.8121C30.7948 20.8121 32.2397 22.4521 32.2115 24.4343C32.2115 26.4308 30.7948 28.0564 28.9818 28.0564Z" fill="white"/>
</g>
<defs>
<filter id="filter0_d_223_433" x="0" y="0" width="50" height="50" filterUnits="userSpaceOnUse" color-interpolation-filters="sRGB">
<feFlood flood-opacity="0" result="BackgroundImageFix"/>
<feColorMatrix in="SourceAlpha" type="matrix" values="0 0 0 0 0 0 0 0 0 0 0 0 0 0 0 0 0 0 127 0" result="hardAlpha"/>
<feOffset dx="4" dy="4"/>
<feComposite in2="hardAlpha" operator="out"/>
<feColorMatrix type="matrix" values="0 0 0 0 0 0 0 0 0 0 0 0 0 0 0 0 0 0 1 0"/>
<feBlend mode="normal" in2="BackgroundImageFix" result="effect1_dropShadow_223_433"/>
<feBlend mode="normal" in="SourceGraphic" in2="effect1_dropShadow_223_433" result="shape"/>
</filter>
</defs>
</svg>