<svg width="22" height="22" viewBox="0 0 22 22" fill="none" xmlns="http://www.w3.org/2000/svg">
<g filter="url(#filter0_d_348_23)">
<rect y="0.5" width="20" height="20" rx="5" fill="#333333"/>
<rect x="1" y="1.5" width="18" height="18" rx="4" stroke="#0A090B" stroke-width="2"/>
</g>
<path opacity="0.01" fill-rule="evenodd" clip-rule="evenodd" d="M13.4958 10.8346C14.0456 10.0608 14.375 9.07437 14.375 8C14.375 5.51472 12.6121 3.5 10.4375 3.5C8.67333 3.5 7.18015 4.82595 6.67933 6.65341C4.56826 7.23571 3 9.40858 3 12.0001C3 15.0376 5.15463 17.5001 7.8125 17.5001C8.71049 17.5001 9.55103 17.219 10.2704 16.7296C10.7952 17.2116 11.4619 17.5 12.1875 17.5C13.8789 17.5 15.25 15.933 15.25 14C15.25 12.6019 14.5327 11.3953 13.4958 10.8346ZM17 10.5C17 11.0523 16.5523 11.5 16 11.5C15.4477 11.5 15 11.0523 15 10.5C15 9.94772 15.4477 9.5 16 9.5C16.5523 9.5 17 9.94772 17 10.5ZM5 6.5C5.55228 6.5 6 6.05228 6 5.5C6 4.94772 5.55228 4.5 5 4.5C4.44772 4.5 4 4.94772 4 5.5C4 6.05228 4.44772 6.5 5 6.5Z" fill="#FF2673"/>
<defs>
<filter id="filter0_d_348_23" x="0" y="0.5" width="21.5" height="21.5" filterUnits="userSpaceOnUse" color-interpolation-filters="sRGB">
<feFlood flood-opacity="0" result="BackgroundImageFix"/>
<feColorMatrix in="SourceAlpha" type="matrix" values="0 0 0 0 0 0 0 0 0 0 0 0 0 0 0 0 0 0 127 0" result="hardAlpha"/>
<feOffset dx="1.5" dy="1.5"/>
<feComposite in2="hardAlpha" operator="out"/>
<feColorMatrix type="matrix" values="0 0 0 0 0 0 0 0 0 0 0 0 0 0 0 0 0 0 1 0"/>
<feBlend mode="normal" in2="BackgroundImageFix" result="effect1_dropShadow_348_23"/>
<feBlend mode="normal" in="SourceGraphic" in2="effect1_dropShadow_348_23" result="shape"/>
</filter>
</defs>
</svg>