<svg width="46" height="46" viewBox="0 0 46 46" fill="none" xmlns="http://www.w3.org/2000/svg">
<path d="M35.2188 0H10.7812C4.82693 0 0 4.82693 0 10.7812V35.2188C0 41.1731 4.82693 46 10.7812 46H35.2188C41.1731 46 46 41.1731 46 35.2188V10.7812C46 4.82693 41.1731 0 35.2188 0Z" fill="#5865F2"/>
<mask id="mask0_341_676" style="mask-type:luminance" maskUnits="userSpaceOnUse" x="4" y="8" width="38" height="31">
<path d="M5.03125 9.16406H40.9688V37.003H5.03125V9.16406Z" fill="white" stroke="white" stroke-width="2"/>
</mask>
<g mask="url(#mask0_341_676)">
<path d="M35.4537 11.6428C33.1238 10.5733 30.665 9.81063 28.1388 9.37392C28.1158 9.36968 28.0921 9.37277 28.071 9.38277C28.0499 9.39277 28.0325 9.40917 28.0213 9.42963C27.7054 9.99133 27.3553 10.7245 27.1104 11.3005C24.3481 10.8869 21.6001 10.8869 18.8946 11.3005C18.6495 10.7115 18.2869 9.99133 17.9695 9.42963C17.9578 9.40959 17.9403 9.39355 17.9193 9.38362C17.8983 9.37368 17.8748 9.3703 17.8518 9.37392C15.3255 9.80975 12.8665 10.5725 10.5369 11.6428C10.517 11.6513 10.5002 11.6657 10.4888 11.6842C5.82985 18.6445 4.55371 25.4339 5.17974 32.1391C5.18148 32.1555 5.18652 32.1714 5.19455 32.1859C5.20257 32.2003 5.21343 32.213 5.22646 32.2232C8.3002 34.4806 11.2778 35.8511 14.2001 36.7594C14.2228 36.7662 14.247 36.7658 14.2696 36.7584C14.2921 36.7511 14.3119 36.737 14.3262 36.718C15.0175 35.774 15.6336 34.7787 16.1621 33.732C16.1693 33.7177 16.1735 33.7019 16.1743 33.6859C16.175 33.6698 16.1724 33.6538 16.1665 33.6388C16.1606 33.6239 16.1516 33.6103 16.1401 33.5991C16.1286 33.5879 16.1148 33.5792 16.0997 33.5737C15.1222 33.2028 14.1916 32.7509 13.2964 32.2375C13.2801 32.2279 13.2664 32.2145 13.2565 32.1983C13.2467 32.1822 13.2409 32.1639 13.2398 32.145C13.2387 32.1261 13.2422 32.1072 13.2501 32.09C13.258 32.0728 13.27 32.0578 13.2851 32.0464C13.4739 31.9052 13.6595 31.7597 13.8418 31.6101C13.8577 31.5969 13.877 31.5884 13.8975 31.5856C13.9181 31.5828 13.9389 31.5858 13.9578 31.5943C19.8394 34.2795 26.2066 34.2795 32.0186 31.5943C32.0376 31.5853 32.0587 31.5818 32.0795 31.5844C32.1004 31.5869 32.12 31.5953 32.1363 31.6086C32.3187 31.7591 32.5048 31.9051 32.6944 32.0464C32.7095 32.0577 32.7216 32.0726 32.7296 32.0897C32.7377 32.1069 32.7413 32.1257 32.7404 32.1446C32.7394 32.1635 32.7338 32.1818 32.724 32.198C32.7143 32.2142 32.7007 32.2278 32.6845 32.2375C31.7888 32.7605 30.8506 33.207 29.8798 33.5723C29.8647 33.578 29.851 33.5869 29.8396 33.5983C29.8282 33.6097 29.8193 33.6234 29.8136 33.6385C29.8078 33.6536 29.8053 33.6697 29.8062 33.6858C29.8071 33.7019 29.8114 33.7177 29.8189 33.732C30.3565 34.7704 30.9695 35.7679 31.6531 36.7166C31.667 36.736 31.6867 36.7506 31.7093 36.7583C31.7319 36.7659 31.7564 36.7663 31.7792 36.7594C34.7157 35.8511 37.6933 34.4806 40.7672 32.2232C40.7804 32.2135 40.7914 32.2011 40.7994 32.1868C40.8075 32.1726 40.8124 32.1568 40.8139 32.1405C41.5632 24.3886 39.5588 17.6548 35.5004 11.6856C35.4904 11.6662 35.4739 11.651 35.4537 11.6428ZM17.0404 28.0564C15.2696 28.0564 13.8105 26.4308 13.8105 24.4343C13.8105 22.4377 15.2413 20.8121 17.0404 20.8121C18.8534 20.8121 20.2983 22.4521 20.2699 24.4343C20.2699 26.4308 18.8392 28.0564 17.0404 28.0564ZM28.9817 28.0564C27.2109 28.0564 25.752 26.4308 25.752 24.4343C25.752 22.4377 27.1827 20.8121 28.9817 20.8121C30.7947 20.8121 32.2396 22.4521 32.2114 24.4343C32.2114 26.4308 30.7947 28.0564 28.9817 28.0564Z" fill="white"/>
</g>
</svg>