<svg width="44" height="56" viewBox="0 0 44 56" fill="none" xmlns="http://www.w3.org/2000/svg">
<g filter="url(#filter0_d_437_812)">
<path d="M28 -5.24537e-07C34.6274 -2.34843e-07 40 5.37258 40 12L40 40C40 46.6274 34.6274 52 28 52L-2.27299e-06 52L0 -1.74846e-06L28 -5.24537e-07Z" fill="#BBF209"/>
<path d="M28 0.999999C34.0751 1 39 5.92487 39 12L39 40C39 46.0751 34.0751 51 28 51L0.999998 51L1 0.999998L28 0.999999Z" stroke="black" stroke-width="2"/>
<path d="M19.1667 30.375L15 26M15 26L19.1667 21.625M15 26H25" stroke="black" stroke-width="2" stroke-linecap="round" stroke-linejoin="round"/>
</g>
<defs>
<filter id="filter0_d_437_812" x="0" y="0" width="44" height="56" filterUnits="userSpaceOnUse" color-interpolation-filters="sRGB">
<feFlood flood-opacity="0" result="BackgroundImageFix"/>
<feColorMatrix in="SourceAlpha" type="matrix" values="0 0 0 0 0 0 0 0 0 0 0 0 0 0 0 0 0 0 127 0" result="hardAlpha"/>
<feOffset dx="4" dy="4"/>
<feComposite in2="hardAlpha" operator="out"/>
<feColorMatrix type="matrix" values="0 0 0 0 0 0 0 0 0 0 0 0 0 0 0 0 0 0 1 0"/>
<feBlend mode="normal" in2="BackgroundImageFix" result="effect1_dropShadow_437_812"/>
<feBlend mode="normal" in="SourceGraphic" in2="effect1_dropShadow_437_812" result="shape"/>
</filter>
</defs>
</svg>