<svg width="16" height="18" viewBox="0 0 16 18" fill="none" xmlns="http://www.w3.org/2000/svg">
<path d="M10.5003 1V4C10.5003 4.55228 10.948 5 11.5003 5H14.5003M5.00031 5H7.00031M5.00031 8H11.0003M5.00031 11H11.0003M13.0003 2.5C12.5552 2.10178 12.0934 1.62948 11.8019 1.32273C11.6078 1.11861 11.3398 1 11.0582 1H3.50008C2.39551 1 1.50008 1.89542 1.50008 2.99999L1.5 14.9999C1.49999 16.1045 2.39542 17 3.49999 17L12.5 17C13.6046 17 14.5 16.1046 14.5 15L14.5003 4.39819C14.5003 4.14249 14.4028 3.8967 14.2253 3.71261C13.8971 3.3722 13.3491 2.8121 13.0003 2.5Z" stroke="#0A090B" stroke-width="1.5" stroke-linecap="round" stroke-linejoin="round"/>
</svg>