<svg width="46" height="46" viewBox="0 0 46 46" fill="none" xmlns="http://www.w3.org/2000/svg">
<path d="M35.2188 0H10.7812C4.82693 0 0 4.82693 0 10.7812V35.2188C0 41.1731 4.82693 46 10.7812 46H35.2188C41.1731 46 46 41.1731 46 35.2188V10.7812C46 4.82693 41.1731 0 35.2188 0Z" fill="white"/>
<path d="M35.2188 0H10.7812C4.82693 0 0 4.82693 0 10.7812V35.2188C0 41.1731 4.82693 46 10.7812 46H35.2188C41.1731 46 46 41.1731 46 35.2188V10.7812C46 4.82693 41.1731 0 35.2188 0Z" fill="#1D9BF0"/>
<path d="M35.8606 16.4254C35.8804 16.7106 35.8804 16.9957 35.8804 17.2836C35.8804 26.0518 29.2053 36.1643 16.9997 36.1643V36.1589C13.3939 36.1641 9.86287 35.1314 6.82812 33.1841C7.35245 33.2472 7.8793 33.2787 8.40758 33.2799C11.3961 33.2823 14.2987 32.2799 16.6489 30.4338C15.2642 30.4077 13.9223 29.9495 12.8108 29.1233C11.6993 28.2971 10.8737 27.1442 10.4495 25.8258C11.4437 26.0174 12.4686 25.9783 13.4453 25.7115C10.3496 25.086 8.12241 22.3661 8.12241 19.2071V19.1231C9.04527 19.6371 10.0781 19.9219 11.134 19.9536C8.21837 18.0049 7.31957 14.1259 9.08015 11.0932C10.7461 13.1432 12.8246 14.8199 15.1808 16.0143C17.537 17.2087 20.118 17.894 22.7563 18.0259C22.4933 16.8936 22.5321 15.712 22.869 14.5994C23.2059 13.4868 23.829 12.4822 24.6759 11.686C27.3486 9.17358 31.552 9.30241 34.0644 11.9736C35.5505 11.6803 36.9755 11.1355 38.2783 10.3627C37.7829 11.8992 36.7463 13.2034 35.3612 14.0327C36.6767 13.8777 37.9613 13.5256 39.1719 12.9882C38.2814 14.3218 37.16 15.4857 35.8606 16.4254Z" fill="white"/>
</svg>