<?xml version="1.0" encoding="UTF-8"?>
<svg id="Camada_1" data-name="Camada 1" xmlns="http://www.w3.org/2000/svg" viewBox="0 0 289.66 151">
  <defs>
    <style>
      .cls-1, .cls-2, .cls-3, .cls-4, .cls-5, .cls-6, .cls-7, .cls-8 {
        stroke-width: 0px;
      }

      .cls-1, .cls-3, .cls-4 {
        fill-rule: evenodd;
      }

      .cls-1, .cls-8 {
        fill: #ff2673;
      }

      .cls-2 {
        fill: #e72a70;
      }

      .cls-3, .cls-6 {
        fill: #bbf209;
      }

      .cls-7 {
        fill: #fff;
      }
    </style>
  </defs>
  <g>
    <path class="cls-2" d="m283.99,132.78s-1.63.8,1.56-7.87c0,0,1.01-1.98.96-3.89-.02-.87-.74.55-1.1-.08-.16-.29-.24-2.83-.5-3-.2-.14-.48.45-.67.35-.37-.21-.65-1.1-.97-1.21-.19-.07-.57.94-.75.9-.17-.04-.82-1.41-.98-1.44-.73,0-.72,1.32-.95,1.98-.44,1.32-.88,12.29-1.27,13.29-.39,1.01-2.51,1.14-2.83.18-.36-1.06-2.35-4.7-3.02-7.68-.33-1.5-.86-3.73-1.98-4.68-.59-.5.21.76-.61.73-.41,0-1.68-2.03-2.14-1.9-.37.11.52,2.92.12,3.14-.34.19-1.99-2.03-2.2-1.51-.15.35-.04,1.84.02,2.33s-.26,2.29.24,2.9c0,0,2.1,2.01,2.85,3.28.53.89,1.7,3.12,2.35,4.36.12.23.16.49.11.75-.05.26-.18.48-.38.64-1.2.97-3.38,3.24-2.58,6.34.39,1.5.56,4.19,1.45,5.09.39.4,1.44-.76,1.83-.47.29.22.57,1.63.83,1.79.78.48,1.34-.53,1.34-.53,1.54.52,3.17.71,4.79.54.76-.07,1.79.79,2.66.53.6-.18,1.01-1.41,1.65-1.73.98-.41,1.91-.93,2.78-1.56,5.89-4.71-.64-11.85-2.6-11.57Zm.19,7.86c-1.09,1.31-5.02,2.78-7.44,2.45-1.91-.26-3.72-1.06-4.81-2.28l1.24-1.92,2.05,3.19,1.3-2.79,2.2,3.03,1.06-3.29,2.16,2.13.87-3.45,2.08,1.82c-.2.4-.44.77-.72,1.11h0Zm.88-1.44l-2.42-2.12-.86,3.41-2.13-2.1-1.02,3.18-2.15-2.96-1.29,2.75-2-3.11-1.47,2.28c-.18-.24-.34-.5-.47-.78-.8-1.72-.37-2.68.73-2.32,6.91,2.15,12.63-2.42,13.31-1.45.5.71.32,2.04-.21,3.22h0Z"/>
    <path class="cls-7" d="m285.06,139.2l-2.42-2.12-.86,3.41-2.13-2.1-1.02,3.18-2.15-2.96-1.29,2.75-2-3.11-1.47,2.28c-.18-.24-.34-.5-.47-.78-.8-1.72-.37-2.68.73-2.32,6.91,2.15,12.63-2.42,13.31-1.45.5.71.32,2.04-.21,3.22Z"/>
    <path class="cls-7" d="m284.9,139.52c-.2.4-.44.77-.72,1.12-1.09,1.31-5.02,2.78-7.44,2.45-1.91-.26-3.72-1.06-4.81-2.28l1.24-1.92,2.05,3.18,1.3-2.79,2.2,3.03,1.06-3.29,2.16,2.13.87-3.45,2.08,1.82Z"/>
    <path class="cls-2" d="m215.73,125.2s-.61,3.18-.37,5.93c.25,2.74.99,6.92.95,9.04-.04,2.12-.24,5.75-.29,7.18-.04,1.22-.19,2.28.08,1.85.28-.42.71-1.8,1.12-.88.42.92-.06,1.67.91,1.35.97-.33.86-1.33,1.29-.74.43.58.29,1.59.67,1.23.38-.36.67.45.86-1.06.19-1.51.29-1.54.26-2.56-.03-1.02-.17-.76-.17-2.04s-.34-2.43,0-2.51,3.97-.12,5.08-.76c0,.64.05,1.27.15,1.9.18,1.36.26,1.87.37,2.68.11.81-.21,1.36.71,1.6.92.25,1.21.26,1.48.83.26.57.71.9,1.2.82.5-.09.61.27,1.14-.68.52-.95.57-2.87.43-3.13-.14-.26-.59-4.87-.67-5s-.9-3.24-.9-4.71v-6.68c0-.74-1.29,2.59-2.01,2.74-.73.14-1.26-1.06-1.54-.23-.28.84-.28,3.97-.71,4.48-.43.51-5.19,1.96-6.15,1.13-.95-.83-.11-5.31-.31-6.53-.2-1.23,0-3.24-.85-3.73-.85-.49-1.58.21-1.72-.47-.14-.68-.85-1.97-1.01-1.02Z"/>
    <path class="cls-2" d="m221.12,132.56c.64,0,.84-.6,1.05-.39.2.22.04.86.34,1.02.29.15.61.45.84.17.23-.28.62-.71.62-.71,0,0,.26,1.06.41.83.14-.23,1.05-1.28.86-2.24-.19-.95-.3-3.61-.3-3.61,0,0,1.68,1.97,2.59,1.64s1.46-1.6,1.72-2.12c.26-.52,1.27-2.29,1.27-2.29,0,0,1,5.47.86,5.96-.15.5.41,2.83.59,3.27.18.43.67.71.95.43.27-.28.76-1.06,1.52-.52.76.54.27.71,1.46-.9,1.19-1.61,2.16-.35,2.51-2.01.35-1.66.98-1.23,0-1.64-.99-.41-3.92.5-3.59-.9s.64-2.07,1.68-2.12c.85-.04,1.68-.35,2.35-.9.67-.5.82-.54.43-.85-.39-.3.02-.52.39-.8.37-.28,1.13-.35-.12-.58-1.25-.23-3.4.46-2.66-.71.74-1.17,2.08-1.82,3.87-1.97,1.79-.15,2.57-.82,2.23-1.1-.33-.28-1.38-.45-.76-.71.61-.25,2.2-.21,1.62-.52-.57-.3-6.85-.76-7.47,0-.62.76-2.32,8.17-2.73,6.37-.41-1.8-1.46-9.2-3.12-7.93-1.66,1.27-2,4.67-2.15,5.38-.14.71-.94,3.5-1.38,2.35-.43-1.15-1.13-6.96-2.7-6.96s-2.13,2.75-2.13,2.75c0,0,.06,3.7-.08,5.23-.14,1.54-1.79,7.09-.95,7.09Z"/>
    <path class="cls-2" d="m217,123.65c.09-.54,1.25-.3,1.34,0,.09.3.31,1.15,0,1.21s-1.44-.56-1.34-1.21Z"/>
    <path class="cls-2" d="m221.6,133.7c-.3.5-.69.76-.48,1.09.21.32.17.73.59.75.42.02.86,0,.71-.76-.05-.23-.15-.45-.29-.63-.14-.18-.32-.33-.52-.44Z"/>
    <path class="cls-2" d="m231.45,136.56c.06-.71,2.26-1.18,2.26-1.18,0,0,2.6,3.5,3,2.64.4-.86.69-5.24,1.68-5.43.99-.19,1.23.5,1.6.68.37.18,2.14,1.06,2.72.78.58-.28,0,1.54-.58,1.9-.59.36-2.28,4.64-3.15,5.63s-3.26,5.79-3.32,6.91c-.06,1.12-.76.2-.86-.1-.11-.29-1.71.54-1.75.52-.05-.02-.82.6-.28-2.03.54-2.63.42-4.95,1.01-6.27.59-1.32-2.32-4.05-2.32-4.05Z"/>
    <path class="cls-2" d="m231.34,150.27c-.05-.05-.82-.46-.54-.71.29-.25.91-.71,1.05-.55.14.16.77.15.38.61-.25.29-.55.51-.89.65Z"/>
    <path class="cls-2" d="m237.81,149.74c-.16.2.26.95.43.75.17-.2.39-.62.15-.71-.19-.06-.39-.07-.58-.04Z"/>
    <path class="cls-2" d="m237.46,145.98c-.14.25-1.05,1.77-.59,1.77s.81-.67.88-.93c.07-.26-.29-.84-.29-.84Z"/>
    <path class="cls-2" d="m250.99,135.01c-.28-1.06-2.83-1.23-5.1-1.21-2.28.02-2.52,3.42-3.51,5.14-.99,1.72-2.89,5.39-3.29,6.88-.4,1.49-.4,2.27,0,2.73.4.46.34.94.8,1.39.47-.02.93.1,1.32.35.62.41.83.2,1.45-.64.62-.85,1.85-.62,2.8-1.23.76-.49.31-3.68.1-4.98-.01-.08,0-.16.05-.23.05-.07.12-.11.19-.13.05,0,.1,0,.14.01,3.43,1.15,4.92-1.27,5.85-3.16.99-2-.52-3.84-.8-4.92Zm-1.34,4.14c-.72,2.87-4.17,1.8-4.84,1.85-.68.05-.47-1.02.19-1.82s1.27-3.12,1.27-3.12c0,0,4.11.23,3.38,3.1h0Z"/>
    <path class="cls-2" d="m249.42,144.61s-2.59-.13-2.35.74c.24.87.57,4.07-.29,4.36-.86.28,1.68.04,2.3.41.63.36,1.14.43,1.55.15s1.03,1.02,1.5.66c.47-.36.62-.89,1.24-.82.61.08,1.39.49,1.73.35.34-.13.74-2.1,0-2.43-.74-.33-3.29.62-3.45.16-.15-.45.48-1.66.48-1.66l2.9-.74s1.32-1.59-.4-1.56c-1.72.03-1.97.23-1.97.23,0,0,2.86-1.71,2.49-2.35-.2-.29-.32-.63-.37-.98,0,0,.61-1.57-.43-2.02-1.04-.46-1.01.07-.89.35.11.29-1.34,3.54-2.4,4.09-.57.29-1.12.64-1.63,1.04Z"/>
    <path class="cls-2" d="m267.21,136.99c-2.89-2.24-2.43-3.05-5.2-3.18-2.77-.14-2.92.08-5.04.47-.83.15-1.39.27-1.76.35-.29.06-.56.22-.76.45-.2.23-.33.53-.36.84-.02.19.01.38.08.56.07.18.18.33.31.46.62.58,1.94,1.88,1.88,3.18-.07,1.31-.27,7.59.52,8.3.31.27,1.05,1.54,1.82,1.77.53.17,1.01-.65,1.62-.55.8.12,1.71,1.23,2.4,1.14.44-.06.85-1.21,1.37-1.35,1.84-.48,3.89-1.43,4.08-2.9.24-1.88,1.93-7.3-.96-9.54Zm-5.99,7.98c.62-3.03-.94-3.23-1.63-4.88-.1-.25-.11-.53-.01-.78.09-.25.27-.45.51-.56.07-.04.15-.06.23-.07,1.43-.22,3.69-.17,4.28,2.12.89,3.44-3.51,4.74-3.38,4.17Z"/>
    <path class="cls-2" d="m266.91,128.15c-.54-.34-1.37-1.15-2.2-2.01-.04-.61-.14-1.21-.31-1.79-.42-1.4-.74.2-.85.06-.05,0-.11.03-.15.06-.04.03-.08.08-.11.13-.36-.4-.68-.76-.9-1.02.02-.07.02-.15,0-.22-.16-.5-1.04-1.39-1.21-1.84-.56-1.56-1.04-2.72-1.13-2.9-.26-.53-2.35-.15-2.9-.03-.04,0-.09.02-.13.05-.04.03-.07.06-.09.11-.57.97-4.06,7.12-3.83,9.28.25,2.33-.8,1.52-1.48,2.56-.15.23-.24.5-.26.78-.02.45.13,1.6.41,1.9.28.3.59-.26.96-.2.37.06.76.1,1.34.14.49.03.93.56,1.16.39.78-.59,1.73-3.04,2.06-3.67l.03-.04s.08-.05.13-.07c.36-.07,1.1.39,1.84.98l1.31.56c.31.45.38.8,1.02.85.56.05.88.03,1.14.07l.73.31c.57.38,1.21.65,1.87.79l.83.35c.14.1.27.2.4.29.14.11.28.2.44.27.36.46.48,1.23.72,1.18.3-.07.48-1.24.7-1.71.09-.2-.32-.61-.24-.85.07-.24.64-.35.71-.6.06-.24-.43-.71-.4-.96.03-.25.64-.4.65-.62.06-1.13-.83-1.68-2.25-2.6Zm-5.67.45v.02c-.55.76-2.46-3.05-5.04-1.06-.05.04-.11.06-.17.06-.06,0-.12-.02-.17-.06-.05-.04-.09-.09-.11-.15-.02-.06-.02-.13,0-.19.28-1,1.93-3.07,2.29-3.67.03-.05.08-.1.13-.13.05-.03.11-.06.17-.06l.84-.13c.08-.01.16,0,.24.03.08.03.14.09.19.16.27.42.86,1.37,1.37,2.33.19.35,1.24,1.19,1.38,1.53.29.7-.94,1.08-1.12,1.33h0Z"/>
    <path class="cls-2" d="m252.59,118.83s-.79.42-.47.71c.32.29,1.08,1.51.96,1.86-.12.35-.15.8.18.86.34.06.53.16.81-.26.28-.42,1.16-2.56.49-2.89-.68-.32-1.97-.29-1.97-.29Z"/>
    <path class="cls-2" d="m240.22,126.64c.06-.26.12-2.72,1.76-4.57,1.63-1.85,3.88-4.35,5.82-4.18,1.94.16,5.37,2.4,4.47,7.56,0,0,.06.48-.74.14-.8-.34-.86.46-1.32.42-.46-.04-.92.35-1.32-.71-.4-1.06-1.66-4.52-4.48-1.77s-1.92,5.61-1.92,5.61c0,0,.18,1.24,2.25.49,2.06-.75-2.77-1.2-1.05-3.31,1.72-2.11,2.25-.42,3.85.06,1.6.49,2.68.49,3.02,1.56.34,1.07.12,3.89-1.66,4.15-1.79.26-4,.23-4.7.47-.7.24-1.85,1.54-2.46.15-.62-1.39-2.72-.94-1.5-6.07Z"/>
    <path class="cls-2" d="m269.35,132.64c.27-.49,1.72.1,2.05.68.33.58-.5.71-.5.71,0,0-2.54.45-1.55-1.38Z"/>
  </g>
  <g>
    <g>
      <path class="cls-5" d="m166.18,120.1h-1.24c.02-.92.02-1.88.02-2.88h-1.6c0,1.02,0,1.98-.01,2.88h-1.33v-.76h-2.69v-.68c.92-.1,1.79-.22,2.54-.37l-.74-1.24c-1.53.33-3.95.58-6.03.67.15.32.31.84.36,1.17.75-.02,1.56-.05,2.37-.11v.55h-2.77v1.2h2.77v.54h-2.41v4.29h2.41v.54h-2.45v1.17h2.45v.81c-1.07.08-2.05.15-2.84.21l.2,1.38c1.51-.14,3.53-.33,5.54-.54.36.3.79.76.99,1.1,2.36-1.84,2.99-4.71,3.17-8.42h1.26c-.1,4.46-.22,6.15-.52,6.53-.13.19-.27.23-.47.23-.28,0-.81,0-1.41-.06.26.44.45,1.12.49,1.57.66.03,1.31.03,1.74-.06.46-.08.78-.23,1.09-.7.46-.62.57-2.63.7-8.31,0-.19.01-.73.01-.73h-1.6Zm-9.42,2.01h1.07v.62h-1.07v-.62Zm2.58.62v-.62h1.1v.62h-1.1Zm1.1.96v.63h-1.1v-.63h1.1Zm-3.68.63v-.63h1.07v.63h-1.07Zm5.01,3.23c-.81.07-1.63.14-2.43.2v-.69h2.55v-1.17h-2.55v-.54h2.48v-4.29h-2.48v-.54h2.69v1.07h1.29c-.11,2.47-.45,4.45-1.54,5.95Z"/>
      <path class="cls-5" d="m179.51,119.85h-3.94v-2.84h-1.77v2.84h-4.28v1.7h4.2c-.24,2.42-1.17,5.24-4.65,7.11.42.29,1.04.94,1.31,1.34,3.93-2.19,4.9-5.57,5.12-8.45h3.93c-.22,4.11-.49,5.94-.93,6.37-.2.18-.36.24-.64.24-.38,0-1.2-.01-2.09-.08.32.48.56,1.23.59,1.71.85.04,1.71.05,2.24-.03.61-.08,1.02-.23,1.42-.76.63-.73.91-2.83,1.18-8.34.03-.23.04-.8.04-.8h-1.74Z"/>
      <path class="cls-5" d="m192.09,126.9c.86.91,1.85,2.16,2.28,2.99l1.41-.87c-.49-.81-1.46-1.98-2.37-2.85l-1.32.73Z"/>
      <path class="cls-5" d="m193.94,121.26h1.8v-1.59h-1.8v-2.6h-1.64v2.6h-2.01v-2.58h-1.63v2.58h-1.55v1.59h1.55v2.76h-1.88v1.61h9.08v-1.61h-1.92v-2.76Zm-3.65,0h2.01v2.76h-2.01v-2.76Z"/>
      <path class="cls-5" d="m186.49,128.83c.38.22,1,.74,1.31,1.03.97-.77,2.1-2,2.8-3.2l-1.57-.5c-.57.99-1.55,2.01-2.54,2.66Z"/>
      <path class="cls-5" d="m187.32,117.49l-1.57-.5c-.71,1.97-1.92,3.94-3.17,5.18.28.41.74,1.32.89,1.72.3-.31.59-.66.88-1.03v7.04h1.64v-9.56c.52-.93.97-1.9,1.34-2.86Z"/>
      <path class="cls-5" d="m206.32,117.19h-1.59c-.67,1.29-2.09,3.11-3.51,4.12.32.36.74.99.95,1.43.42-.32.82-.69,1.21-1.08v1.24h4.61v-1.15c.34.34.69.65,1.03.91.28-.51.67-1.12,1.02-1.53-1.35-.84-2.76-2.49-3.72-3.94Zm-2.7,4.22c.8-.85,1.5-1.78,1.98-2.56.49.77,1.25,1.72,2.05,2.56h-4.03Z"/>
      <path class="cls-5" d="m202.66,129.91h1.53v-.73h3.08v.68h1.6v-5.73h-6.21v5.79Zm4.61-4.33v2.14h-3.08v-2.14h3.08Z"/>
      <path class="cls-5" d="m196.49,128.3c.35.14.97.43,1.27.61.4-.88.71-2.26.85-3.58l-1.38-.23c-.11,1.17-.33,2.4-.74,3.21Z"/>
      <path class="cls-5" d="m199.97,121.92c.17.31.33.65.48,1-.46.02-.91.04-1.35.05.89-1.13,1.87-2.53,2.63-3.74l-1.35-.61c-.33.68-.78,1.47-1.27,2.25-.14-.18-.29-.37-.47-.56.5-.77,1.07-1.84,1.58-2.78l-1.45-.54c-.24.73-.64,1.66-1.04,2.42-.11-.1-.21-.2-.31-.28l-.79,1.13c.58.54,1.23,1.27,1.64,1.88-.22.31-.43.61-.64.88-.36.01-.71.02-1.01.03l.14,1.45c.6-.04,1.29-.09,2.02-.14v5.57h1.46v-5.66c.23-.02.46-.03.7-.05.08.25.14.49.18.7l1.18-.52c-.17-.8-.7-2.01-1.24-2.93l-1.1.45Z"/>
      <path class="cls-5" d="m200.28,125.35c.31.81.67,1.87.81,2.56l1.23-.43c-.15-.69-.52-1.72-.86-2.51l-1.17.37Z"/>
    </g>
    <g>
      <path class="cls-6" d="m164.97,119.65h-1.24c.02-.92.02-1.88.02-2.88h-1.6c0,1.02,0,1.98-.01,2.88h-1.33v-.76h-2.69v-.68c.92-.1,1.79-.22,2.53-.37l-.74-1.24c-1.53.33-3.96.58-6.03.68.15.32.31.84.36,1.17.75-.02,1.56-.05,2.37-.11v.55h-2.77v1.2h2.77v.54h-2.41v4.28h2.41v.54h-2.45v1.17h2.45v.81c-1.07.08-2.05.15-2.84.21l.2,1.38c1.51-.14,3.53-.34,5.54-.54.36.3.79.76.99,1.11,2.36-1.84,2.99-4.71,3.17-8.42h1.26c-.1,4.46-.22,6.15-.52,6.53-.12.19-.26.23-.47.23-.28,0-.81,0-1.41-.05.27.44.45,1.12.49,1.57.65.03,1.31.03,1.74-.05.46-.08.78-.23,1.09-.7.46-.62.57-2.63.7-8.31,0-.19.01-.73.01-.73h-1.6Zm-9.42,2.01h1.07v.62h-1.07v-.62Zm2.58.62v-.62h1.1v.62h-1.1Zm1.1.96v.63h-1.1v-.63h1.1Zm-3.68.63v-.63h1.07v.63h-1.07Zm5.01,3.23c-.81.07-1.63.14-2.43.2v-.69h2.55v-1.17h-2.55v-.54h2.48v-4.28h-2.48v-.54h2.69v1.07h1.28c-.11,2.47-.45,4.45-1.54,5.95Z"/>
      <path class="cls-6" d="m178.3,119.4h-3.94v-2.84h-1.77v2.84h-4.28v1.69h4.2c-.24,2.42-1.17,5.24-4.65,7.11.42.29,1.04.94,1.31,1.34,3.93-2.19,4.9-5.57,5.12-8.45h3.93c-.22,4.11-.49,5.94-.93,6.37-.19.18-.36.23-.64.23-.38,0-1.2-.01-2.09-.08.32.48.56,1.23.59,1.71.85.04,1.71.05,2.24-.03.61-.08,1.02-.23,1.42-.76.63-.73.9-2.82,1.18-8.34.03-.23.04-.8.04-.8h-1.74Z"/>
      <path class="cls-6" d="m186.11,117.04l-1.57-.5c-.71,1.97-1.92,3.94-3.18,5.18.28.41.74,1.32.89,1.72.3-.31.59-.66.88-1.03v7.04h1.64v-9.56c.51-.93.97-1.9,1.34-2.86Z"/>
      <path class="cls-6" d="m192.72,120.81h1.8v-1.58h-1.8v-2.6h-1.64v2.6h-2.01v-2.58h-1.63v2.58h-1.55v1.58h1.55v2.76h-1.88v1.61h9.08v-1.61h-1.92v-2.76Zm-3.65,0h2.01v2.76h-2.01v-2.76Z"/>
      <path class="cls-6" d="m185.27,128.39c.38.22,1,.74,1.31,1.03.98-.77,2.1-2,2.8-3.2l-1.57-.5c-.57.99-1.55,2.01-2.53,2.66Z"/>
      <path class="cls-6" d="m190.87,126.46c.86.91,1.85,2.16,2.28,2.99l1.41-.87c-.49-.81-1.46-1.98-2.37-2.85l-1.32.73Z"/>
      <path class="cls-6" d="m205.1,116.74h-1.59c-.67,1.29-2.09,3.11-3.51,4.12.32.36.74.99.95,1.43.42-.32.82-.69,1.21-1.08v1.24h4.61v-1.14c.34.34.69.65,1.03.91.28-.51.67-1.12,1.02-1.53-1.35-.84-2.76-2.49-3.72-3.94Zm-2.7,4.22c.8-.85,1.5-1.78,1.98-2.56.49.77,1.25,1.72,2.05,2.56h-4.03Z"/>
      <path class="cls-6" d="m201.44,129.46h1.53v-.73h3.08v.68h1.6v-5.73h-6.21v5.79Zm4.61-4.33v2.14h-3.08v-2.14h3.08Z"/>
      <path class="cls-6" d="m195.27,127.85c.35.14.98.43,1.27.61.4-.88.71-2.26.85-3.58l-1.38-.23c-.11,1.17-.33,2.4-.74,3.21Z"/>
      <path class="cls-6" d="m199.06,124.9c.31.81.67,1.87.81,2.56l1.23-.43c-.15-.69-.52-1.72-.86-2.51l-1.17.37Z"/>
      <path class="cls-6" d="m198.75,121.47c.17.31.33.65.48,1-.46.02-.91.04-1.35.05.89-1.13,1.87-2.53,2.63-3.74l-1.35-.61c-.33.68-.78,1.47-1.27,2.25-.14-.18-.29-.37-.47-.56.5-.77,1.07-1.84,1.58-2.78l-1.45-.54c-.24.73-.64,1.66-1.04,2.42-.11-.1-.21-.2-.31-.28l-.79,1.13c.58.54,1.23,1.27,1.64,1.88-.22.31-.43.61-.65.88-.36.01-.71.02-1.01.03l.14,1.45c.6-.04,1.29-.09,2.02-.14v5.57h1.46v-5.66c.23-.02.47-.03.7-.05.08.25.14.49.18.7l1.18-.52c-.17-.8-.7-2.01-1.24-2.93l-1.1.46Z"/>
    </g>
  </g>
  <g>
    <path class="cls-5" d="m3,13.33v37.73l5.22,5.33h4.86v-10.57h25.9l5.39-5.34v-11.08l-4.72-4.68h-5.89v10.13H13.23V3L3,13.33Z"/>
    <path class="cls-5" d="m44.37,45.9l-10.35,10.24v11.02h10.35v-21.27Z"/>
    <path class="cls-5" d="m47.68,24.24l10.85,10.73v21.42h31.08v10.77l-21.03,21.1h-10.2v-5.46l16.08-15.91h-21.07l-5.7-5.91V24.24Z"/>
    <path class="cls-5" d="m89.61,29.98h-10v21.12h10v-21.12Z"/>
    <path class="cls-5" d="m98.57,24.34l-5.4,5.35-.21,37.47h10.66v-10.91h26.19l4.93-4.74v-27.17h-36.17Zm26.3,21.71h-21.47v-10.91h21.47v10.91Z"/>
    <path class="cls-5" d="m179.78,24.34h-16.35v10.77h16.35v-10.77Z"/>
    <path class="cls-5" d="m179.78,40.21v10.89h-26.28v-10.78h2.06s12.4-.06,12.4-.06h.79l11.03-.05Z"/>
    <path class="cls-5" d="m225.4,29.73v10.48l-26,27.09h-15.67v-11.09h10.02l21.32-21.1h-21.03v10.62l-5.42,5.36h-4.89v-26.76l36.11-.11,5.56,5.5Z"/>
    <path class="cls-5" d="m225.4,56.25v11.05h-9.42l-6.03-5.97,10.29-10.19,5.16,5.1Z"/>
    <path class="cls-5" d="m58.38,91.99h10.2l10.48,10.87h13.89v-32.12h11.03v32.12l-9.59,10.64h-15.36l-20.64-21.51Z"/>
    <path class="cls-5" d="m152.07,86.25h-28.94v11.48h28.94v-11.48Z"/>
    <path class="cls-5" d="m179.78,56.25v11.21h-36.18l-3.93,3.57h12.4v10.33l-14.14.02h-19.92v21.41h34.06l-10.34,10.5h-34.05v-42.69h16.09l14.24-14.08V24.34h20.66v10.77h-9.99v21.13h31.11Z"/>
    <path class="cls-5" d="m198.38,75.93v11.62l-3.54,3.5-2.45,2.42-13.82,13.68-2.64,2.61-3.81,3.77h-15.78v-10.87h10.33l21.23-21.01h-21.01v10.93l-4.83,4.82-.35.35h-5.37l-.13-21.36,5.41-5.36h31.79l4.96,4.91Z"/>
    <path class="cls-5" d="m198.24,102.97v10.54h-2.58s-.99.02-.99.02l-6.81.03-5.25-5.2,10.54-10.43,5.09,5.04Z"/>
    <path class="cls-5" d="m223.04,86.28h20.92v27.25h-36.44l-2.43-2.41-2.68-2.65v-11.68l4.67-4.62,10.93,10.81h10.51l5.39-5.33h-15.85l-15.65-15.48.21-11.15h30.88l10.43,10.32h-25.89l4.97,4.91Z"/>
    <path class="cls-5" d="m258.57,102.85h31.09l-10.61,10.53h-25.82l-5.24-5.18v-27.42l10.58-10.62h31.09v11.2h-31.18l.09,21.5Z"/>
    <path class="cls-5" d="m289.66,86.23h-25.81v11.44h25.81v-11.44Z"/>
  </g>
  <g>
    <rect class="cls-6" x="262.01" y="84.38" width="23.49" height="9.15"/>
    <polygon class="cls-3" points="285.5 77.2 254.31 77.2 254.42 101 283.86 101 275.57 109.23 250.7 109.23 246.15 104.72 246.15 78.25 256.06 68.3 285.5 68.3 285.5 77.2"/>
    <polygon class="cls-3" points="221.24 53.73 221.24 63.15 213.46 63.15 208.59 58.34 217.24 49.77 221.24 53.73"/>
    <polygon class="cls-3" points="194.08 100.45 194.08 109.37 185.34 109.41 181.25 105.36 190.15 96.56 194.08 100.45"/>
    <polygon class="cls-3" points="239.8 84.43 239.8 109.39 205 109.39 200.58 105.01 200.58 94.28 204.09 90.81 214.53 101.15 226.01 101.15 233.73 93.53 215.55 93.53 200.6 78.73 200.78 69.19 230.05 69.19 238.16 77.22 212.27 77.22 219.56 84.43 239.8 84.43"/>
    <rect class="cls-6" x="121.29" y="84.4" width="26.62" height="9.18"/>
    <polygon class="cls-3" points="194.22 73.4 194.22 84.07 168.64 109.37 154.5 109.37 154.5 100.79 164.15 100.79 187.71 77.48 162.74 77.48 162.74 89.09 158.24 93.58 154.5 93.58 154.37 73.85 159.11 69.16 189.93 69.16 194.22 73.4"/>
    <polygon class="cls-3" points="221.24 27.21 221.24 36.76 195.9 63.15 181.89 63.15 181.89 54.36 191.23 54.36 214.87 30.97 189.87 30.97 189.87 42.26 185.13 46.95 181.89 46.95 181.89 22.49 216.36 22.38 221.24 27.21"/>
    <rect class="cls-6" x="161.6" y="22.49" width="14.02" height="8.48"/>
    <polygon class="cls-3" points="175.62 38.37 175.62 46.95 151.66 46.95 151.66 38.46 175.62 38.37"/>
    <polygon class="cls-3" points="140.15 63.31 133.68 69.18 147.91 69.18 147.91 77.22 134.92 77.24 113.85 77.24 113.85 100.95 146.31 100.95 138.24 109.15 105.83 109.15 105.83 68.76 121.24 68.76 136.16 54.01 136.16 22.49 154.5 22.49 154.5 30.97 144.51 30.97 144.51 54.4 175.62 54.4 175.62 63.31 140.15 63.31"/>
    <polygon class="cls-3" points="99.81 68.9 99.81 99.43 90.86 109.35 76.52 109.35 58.08 90.14 65.08 90.14 75.56 101.01 91.11 101.01 91.11 68.9 99.81 68.9"/>
    <rect class="cls-6" x="77.76" y="28.13" width="7.69" height="18.82"/>
    <path class="cls-3" d="m96.05,22.49l-4.73,4.68-.2,35.85h8.33v-10.92h26.88l4.24-4.07v-25.54h-34.52Zm26.98,21.72h-23.8v-13.21h23.8v13.21Z"/>
    <polygon class="cls-3" points="85.45 54.54 85.45 63.69 65.09 84.12 56.54 84.12 56.54 80.28 74.26 62.75 50.89 62.75 45.84 57.53 45.84 24.01 54.37 32.45 54.37 54.54 85.45 54.54"/>
    <polygon class="cls-3" points="40.21 45.67 40.21 63.02 32.18 63.02 32.18 53.62 40.21 45.67"/>
    <polygon class="cls-3" points="40.21 26.88 40.21 37.01 35.5 41.67 8.92 41.67 8.92 52.24 5.71 52.24 1.16 47.6 1.16 10.8 9.07 2.81 9.07 33.01 31.92 33.01 31.92 22.88 36.17 22.88 40.21 26.88"/>
  </g>
  <g>
    <path class="cls-1" d="m152.23,38.46c-.18.59-.37,1.18-.57,1.77v-1.77h.57Z"/>
    <path class="cls-1" d="m144.51,50.49v1.25c-.21-.22-.43-.44-.64-.65.21-.21.42-.4.64-.6Z"/>
    <path class="cls-1" d="m153.37,54.4c-.27.14-.55.32-.82.55-.17-.19-.33-.37-.49-.55h1.31Z"/>
    <path class="cls-1" d="m162.16,69.16c-.9.38-1.56.33-2.07,0h2.07Z"/>
    <path class="cls-1" d="m147.91,69.18v4.29c-.16.1-.33.2-.49.3-.31.19-1.1-.36-1.68-.56,1.02-1.68-.36-2.73-.94-4.03h3.11Z"/>
    <path class="cls-1" d="m124.19,67.97c-.09.33-.18.67-.27,1-1.28.13-2.56.26-3.84.39-.08-.2-.16-.4-.24-.6h1.4l1.73-1.71c.39.25.83.67,1.22.92Z"/>
    <path class="cls-1" d="m136.38,72.75c-4.34,1.57-6.59.65-6.56-1.9l6.56,1.9Z"/>
    <path class="cls-1" d="m134.51,65.89c-1.46,1.56-2.81,3.56-6.16,1.72,1.8-1.2,3.28-2.25,4.84-3.18.29-.17,1.02-.02,1.28.25.22.21.26.99.04,1.21Z"/>
    <path class="cls-1" d="m154.5,28.53v2.44h-5.61c.14-.41.3-.82.46-1.23.1-.27.6-.5.95-.56,1.39-.24,2.8-.42,4.2-.65Z"/>
    <path class="cls-1" d="m141.92,44.92c-1.41.85-3.01,1.37-4.54,2.01-.15-.24-.31-.48-.46-.72.98-1.26,1.86-2.62,3-3.7.34-.33,1.78-.13,2.08.28.36.48.29,1.91-.08,2.13Z"/>
    <path class="cls-1" d="m143.03,39.88c-.17.39-.21.78-.41.89-1.83,1.03-4.81.13-6.46-1.54v-3.34c.39.01.77.11.92.3.43.55.53,1.35.64,1.67,1.84.7,3.44,1.31,5.31,2.02Z"/>
    <path class="cls-1" d="m148.76,54.4c-.33.94-.68,1.93-1.12,3.18-1.53-.3-3.12-.62-4.71-.93.03-.26.06-.52.09-.78,2.13.72,3.44.26,3.71-1.47h2.03Z"/>
    <path class="cls-1" d="m161.39,60.27c.61,1.1,1.36,2.09,1.92,3.04h-7.75c-.61-.56-1.26-1.17-2.09-1.95,1.45-.35,2.11-.52,2.87-.7-1.27-1.68-.75-2.75,2.19-4.94-.6-.58-1.22-1.03-1.84-1.32h5.59c-.14.49-.27.93-.4,1.36-.26.87-.51,1.73-.77,2.59.24.08.47.15.71.22.39-.96.79-1.93,1.19-2.91,1.07,1.51,1.91,2.68,2.81,3.96-1.47.21-2.84.41-4.43.65Z"/>
    <path class="cls-1" d="m175.62,54.4v8.91h-8.34c.32-1.44,1.11-2.68,3.45-3.31-.86-1.08-1.52-1.92-2.18-2.75-.15.1-.29.21-.43.31.11.62.23,1.24.39,2.06-2.67-1.12-4.2-3.1-4.94-5.22h12.05Z"/>
    <path class="cls-1" d="m175.62,22.49v8.48h-3.34c-1.15-1.16-2.23-2.26-3.3-3.36-.37.14-.75.29-1.13.42.14.97.28,1.94.43,2.94h-5.43c-.39-.3-.81-.53-1.25-.7v-7.78h14.02Z"/>
    <path class="cls-1" d="m175.62,38.37v8.58h-10.5c.28-.47.55-.92.75-1.34-.91-.08-2.27-.2-3.9-.34.17.52.36,1.08.56,1.68h-5.53c.26-.75.7-1.46.98-1.47,3.03-.14,3.42-3.06,5.21-4.57-1.02-.11-2.05.06-2.43.64-1.78,2.71-4.74,3.1-6.78.7-.35-.41-.3-1.15-.43-1.73.59-.09,1.21-.29,1.8-.22.46.05.88.44,1.54.8-.09-1.08-.15-1.81-.21-2.58.29-.03.56-.05.82-.08h.02l18.1-.07Z"/>
    <polygon class="cls-1" points="221.24 53.73 221.24 63.15 213.46 63.15 208.59 58.34 217.24 49.77 221.24 53.73"/>
    <polygon class="cls-1" points="221.24 27.21 221.24 36.76 195.9 63.15 181.89 63.15 181.89 54.36 191.23 54.36 214.87 30.97 189.87 30.97 189.87 42.26 185.13 46.95 181.89 46.95 181.89 22.49 216.36 22.38 221.24 27.21"/>
    <path class="cls-1" d="m160.27,72.82c-.85,1.09-2.21,1.8-3.69,2.9-.74-.96-1.3-1.68-1.78-2.3l2.52-2.49c.57-.23,1.15-.44,1.73-.61.16-.05,1.49,2.15,1.22,2.5Z"/>
    <path class="cls-1" d="m172.59,69.16c-.55.33-1.03.79-1.23,1.25-.86,1.96-2.03,2.46-4.31,1.16,1.21,1.85,2.65,3.12,2.77,4.52.04.44-.18.9-.52,1.39h-6.56v.72c-1.52-.21-2.8-.39-4.61-.64,1.55-1.41,2.41-2.55,3.55-3.16,2.49-1.31,3.18-2.74,1.89-5.24h9.02Z"/>
    <path class="cls-1" d="m158.68,93.14l-.44.44h-2.48c.01-.34.02-.68.03-1.05,1.53.01,2.43.14,2.89.61Z"/>
    <path class="cls-1" d="m162.74,78.62v8.76c-.56.25-1.26.35-2.11.28.05-.78.11-1.49.16-2.38-.8.09-1.39.14-2.65.27,1.62-1.29,2.72-2.16,4.19-3.32-.89-1.01-1.73-1.97-2.78-3.16.99-.14,1.94-.27,3.19-.45Z"/>
    <path class="cls-1" d="m167.34,97.64c-.84,4.58-3.16,5.72-7.19,3.15h4l3.19-3.15Z"/>
    <path class="cls-1" d="m179.16,95.17c-1.01,1.26-2.02,2.52-3.51,4.38-.54-1.88-.84-2.89-1.15-3.95,1.54-.41,2.85-.75,4.15-1.1l.51.67Z"/>
    <path class="cls-1" d="m173.76,102.08c-.58.92-1.25,1.81-1.73,2.78-1.52,3.13-3.39,3.43-5.91.99,1.06-1.03,1.98-2.28,3.22-3.02s2.78-.98,4.19-1.44c.08.23.15.46.23.69Z"/>
    <path class="cls-1" d="m190.87,109.38l-5.05.03c1.14-1.13,2.07-2.06,3-2.98.65.93,1.3,1.87,2.05,2.95Z"/>
    <path class="cls-1" d="m194.08,100.45v3.8c-.06.25-.13.49-.19.74-.74-.43-1.95-.72-2.12-1.31-.48-1.63.22-2.66,2.29-3.25l.02.02Z"/>
    <path class="cls-1" d="m192.6,98.98c-3.16,1.88-6.5,7.27-6.81,10.43h-.45l-3.22-3.19c-.04-.56-.06-1.13-.04-1.68l8.07-7.98,2.45,2.42Z"/>
    <path class="cls-1" d="m194.22,73.4v10.67l-2.26,2.23c.29-.92.93-2.04,1.99-3.4-2.11.52-3.89,2.69-5.6.04-.11-.17-1.79.65-3.54,1.31,2.17,1.36,3.63,2.95,4.27,4.9l-6.81,6.74c-.41-.45-.96-.83-1.67-1.12.79-1.11,1.57-2.19,2.82-3.93-1.09.48-1.34.7-1.58.69-1.2-.06-2.8.26-3.49-.37-1.33-1.22.01-2.07,1.08-2.85.56-.41.88-1.13,1.32-1.72-.22-.19-.44-.38-.66-.57-1.11.9-2.21,1.81-4.05,3.31.03-.13.06-.26.09-.39h.01s9.61-9.52,9.61-9.52c0,.5,0,1.01-.01,1.51,2.54-.13,5.07-.27,8.02-.44-2.85-2.8-5.55.89-8.01-1.07l1.96-1.94h-13.56s-.01-.06-.02-.09c-.32-1.41-1.14-2.58-1.25-4.21-.1-1.44-.59-2.63.89-3.31,1.88-.87,2.55.47,2.96,2,.04.13.3.21.82.57.61-1,1.22-1.97,1.92-3.12.64.29,1.29.57,1.93.87-.01-.38-.05-.72-.13-1.03h8.66l4.29,4.24Z"/>
    <path class="cls-1" d="m205.39,92.1c-1.83,1.57-3.49,2.98-4.81,4.1v-1.92l3.51-3.47,1.3,1.29Z"/>
    <path class="cls-1" d="m210.97,97.62c-1.02.13-1.98-.24-2.85-1.53-.62-.92-1.12-1.91-1.6-2.87l4.45,4.4Z"/>
    <path class="cls-1" d="m207.84,99.53c-2.58.62-1.72,2.99-2.44,4.54-1.29,2.76-2.54.86-4.09-.7.06.95.11,1.78.15,2.51l-.88-.87v-7.45c.17,1.13.34,2.22.48,3.1,1.09-.59,2.33-1.27,3.65-2-.18-.7-.36-1.43-.75-2.96,1.64.94,2.74,1.43,3.63,2.17.34.28.32,1.64.25,1.66Z"/>
    <path class="cls-1" d="m219.56,84.43l-7.29-7.21h25.89l-8.11-8.03h-29.27l-.18,9.54,14.95,14.8h18.18l-7.72,7.62h-11.48l-.89-.89c-.05.61-.09,1.17-.13,1.75-.79-.42-1.43-.77-2.35-1.26,0,1.39-.01,2.39-.02,3.38-.16-.21-.34-.41-.51-.62-2.47,1.34-4.93,2.67-7.48,4.05l1.85,1.83h5.19c.06-.07.12-.13.19-.19,1-.89,2.46-1.38,3.79-1.79,1.47-.44,2.18-.89,1.45-2.61-.3-.69.35-1.79.98-2.59,1.03,2.53,2.48,5.07-.48,7-.1.06-.2.13-.3.18h23.98v-24.96h-20.24Zm.49,24.49c.73-2.46,1.37-4.64,2.02-6.82.3.05.61.1.92.15.39,1.01.78,2.03,1.05,2.72l-3.99,3.95Z"/>
    <rect class="cls-8" x="262.01" y="84.38" width="23.49" height="9.15"/>
    <polygon class="cls-1" points="285.5 77.2 254.31 77.2 254.42 101 283.86 101 275.57 109.23 250.7 109.23 246.15 104.72 246.15 78.25 256.06 68.3 285.5 68.3 285.5 77.2"/>
  </g>
  <path class="cls-4" d="m36.65,21.73h-5.89v10.13H10.23V0L0,10.33v37.74l5.22,5.32h4.86v-10.57h25.9l5.39-5.34v-11.07l-4.72-4.68Zm3.56,15.28l-4.71,4.66H8.92v10.57h-3.21l-4.55-4.64V10.8l7.91-7.99v30.2h22.85v-10.13h4.25l4.04,4v10.13Zm15.32,16.38v-21.42l-10.85-10.73v36.75l5.71,5.9h21.07l-16.08,15.91v5.46h10.2l21.03-21.1v-10.77h-31.08Zm29.92,10.3l-20.36,20.43h-8.55v-3.84l17.72-17.53h-23.37l-5.05-5.22V24.01l8.53,8.44v22.09h31.08v9.15Zm13.78-32.69v13.21h23.8v-13.21h-23.8Zm22.64,12.06h-21.47v-10.91h21.47v10.91Zm-22.64-12.06v13.21h23.8v-13.21h-23.8Zm22.64,12.06h-21.47v-10.91h21.47v10.91Zm-22.64-12.06v13.21h23.8v-13.21h-23.8Zm22.64,12.06h-21.47v-10.91h21.47v10.91Zm-22.64-12.06v13.21h23.8v-13.21h-23.8Zm22.64,12.06h-21.47v-10.91h21.47v10.91Zm-22.64-12.06v13.21h23.8v-13.21h-23.8Zm22.64,12.06h-21.47v-10.91h21.47v10.91Zm-22.64-12.06v13.21h23.8v-13.21h-23.8Zm22.64,12.06h-21.47v-10.91h21.47v10.91Zm-22.64-12.06v13.21h23.8v-13.21h-23.8Zm22.64,12.06h-21.47v-10.91h21.47v10.91Zm-22.64-12.06v13.21h23.8v-13.21h-23.8Zm22.64,12.06h-21.47v-10.91h21.47v10.91Zm-22.64-12.06v13.21h23.8v-13.21h-23.8Zm22.64,12.06h-21.47v-10.91h21.47v10.91Zm-22.64-12.06v13.21h23.8v-13.21h-23.8Zm22.64,12.06h-21.47v-10.91h21.47v10.91Zm-22.64-12.06v13.21h23.8v-13.21h-23.8Zm22.64,12.06h-21.47v-10.91h21.47v10.91Zm-22.64-12.06v13.21h23.8v-13.21h-23.8Zm22.64,12.06h-21.47v-10.91h21.47v10.91Zm-22.64-12.06v13.21h23.8v-13.21h-23.8Zm22.64,12.06h-21.47v-10.91h21.47v10.91Zm-22.64-12.06v13.21h23.8v-13.21h-23.8Zm22.64,12.06h-21.47v-10.91h21.47v10.91Zm-22.64-12.06v13.21h23.8v-13.21h-23.8Zm22.64,12.06h-21.47v-10.91h21.47v10.91Zm-22.64-12.06v13.21h23.8v-13.21h-23.8Zm22.64,12.06h-21.47v-10.91h21.47v10.91Zm-22.64-12.06v13.21h23.8v-13.21h-23.8Zm22.64,12.06h-21.47v-10.91h21.47v10.91Zm-22.64-12.06v13.21h23.8v-13.21h-23.8Zm22.64,12.06h-21.47v-10.91h21.47v10.91Zm-22.64-12.06v13.21h23.8v-13.21h-23.8Zm22.64,12.06h-21.47v-10.91h21.47v10.91Zm-22.64-12.06v13.21h23.8v-13.21h-23.8Zm22.64,12.06h-21.47v-10.91h21.47v10.91Zm-22.64-12.06v13.21h23.8v-13.21h-23.8Zm22.64,12.06h-21.47v-10.91h21.47v10.91Zm-22.64-12.06v13.21h23.8v-13.21h-23.8Zm22.64,12.06h-21.47v-10.91h21.47v10.91Zm-22.64-12.06v13.21h23.8v-13.21h-23.8Zm22.64,12.06h-21.47v-10.91h21.47v10.91Zm-22.64-12.06v13.21h23.8v-13.21h-23.8Zm22.64,12.06h-21.47v-10.91h21.47v10.91Zm-22.64-12.06v13.21h23.8v-13.21h-23.8Zm22.64,12.06h-21.47v-10.91h21.47v10.91Zm-22.64-12.06v13.21h23.8v-13.21h-23.8Zm22.64,12.06h-21.47v-10.91h21.47v10.91Zm-22.64-12.06v13.21h23.8v-13.21h-23.8Zm22.64,12.06h-21.47v-10.91h21.47v10.91Zm-22.64-12.06v13.21h23.8v-13.21h-23.8Zm22.64,12.06h-21.47v-10.91h21.47v10.91Zm-22.64-12.06v13.21h23.8v-13.21h-23.8Zm22.64,12.06h-21.47v-10.91h21.47v10.91Zm-22.64-12.06v13.21h23.8v-13.21h-23.8Zm22.64,12.06h-21.47v-10.91h21.47v10.91Zm-22.64-12.06v13.21h23.8v-13.21h-23.8Zm22.64,12.06h-21.47v-10.91h21.47v10.91Zm-22.64-12.06v13.21h23.8v-13.21h-23.8Zm22.64,12.06h-21.47v-10.91h21.47v10.91Zm-22.64-12.06v13.21h23.8v-13.21h-23.8Zm22.64,12.06h-21.47v-10.91h21.47v10.91Zm-22.64-12.06v13.21h23.8v-13.21h-23.8Zm22.64,12.06h-21.47v-10.91h21.47v10.91Zm-22.64-12.06v13.21h23.8v-13.21h-23.8Zm22.64,12.06h-21.47v-10.91h21.47v10.91Zm-22.64-12.06v13.21h23.8v-13.21h-23.8Zm22.64,12.06h-21.47v-10.91h21.47v10.91Zm-22.64-12.06v13.21h23.8v-13.21h-23.8Zm22.64,12.06h-21.47v-10.91h21.47v10.91Zm-22.64-12.06v13.21h23.8v-13.21h-23.8Zm22.64,12.06h-21.47v-10.91h21.47v10.91Zm-22.64-12.06v13.21h23.8v-13.21h-23.8Zm22.64,12.06h-21.47v-10.91h21.47v10.91Zm-22.64-12.06v13.21h23.8v-13.21h-23.8Zm22.64,12.06h-21.47v-10.91h21.47v10.91Zm-22.64-12.06v13.21h23.8v-13.21h-23.8Zm22.64,12.06h-21.47v-10.91h21.47v10.91Zm-22.64-12.06v13.21h23.8v-13.21h-23.8Zm22.64,12.06h-21.47v-10.91h21.47v10.91Zm-22.64-12.06v13.21h23.8v-13.21h-23.8Zm22.64,12.06h-21.47v-10.91h21.47v10.91Zm-22.64-12.06v13.21h23.8v-13.21h-23.8Zm22.64,12.06h-21.47v-10.91h21.47v10.91Zm-22.64-12.06v13.21h23.8v-13.21h-23.8Zm22.64,12.06h-21.47v-10.91h21.47v10.91Zm-22.64-12.06v13.21h23.8v-13.21h-23.8Zm22.64,12.06h-21.47v-10.91h21.47v10.91Zm-22.64-12.06v13.21h23.8v-13.21h-23.8Zm22.64,12.06h-21.47v-10.91h21.47v10.91Zm-22.64-12.06v13.21h23.8v-13.21h-23.8Zm22.64,12.06h-21.47v-10.91h21.47v10.91Zm-22.64-12.06v13.21h23.8v-13.21h-23.8Zm22.64,12.06h-21.47v-10.91h21.47v10.91Zm-22.64-12.06v13.21h23.8v-13.21h-23.8Zm22.64,12.06h-21.47v-10.91h21.47v10.91Zm-22.64-12.06v13.21h23.8v-13.21h-23.8Zm22.64,12.06h-21.47v-10.91h21.47v10.91Zm-22.64-12.06v13.21h23.8v-13.21h-23.8Zm22.64,12.06h-21.47v-10.91h21.47v10.91Zm-22.64-12.06v13.21h23.8v-13.21h-23.8Zm22.64,12.06h-21.47v-10.91h21.47v10.91Zm-26.3-21.72l-5.41,5.36-.21,37.46h10.66v-10.91h26.19l4.93-4.74v-27.17h-36.16Zm35,26.69l-4.24,4.07h-26.88v10.92h-8.33l.2-35.85,4.73-4.68h34.52v25.54Zm-7.54-17.03h-23.8v13.21h23.8v-13.21Zm-1.16,12.06h-21.47v-10.91h21.47v10.91Zm-22.64-12.06v13.21h23.8v-13.21h-23.8Zm22.64,12.06h-21.47v-10.91h21.47v10.91Zm-22.64-12.06v13.21h23.8v-13.21h-23.8Zm22.64,12.06h-21.47v-10.91h21.47v10.91Zm-22.64-12.06v13.21h23.8v-13.21h-23.8Zm22.64,12.06h-21.47v-10.91h21.47v10.91Zm-22.64-12.06v13.21h23.8v-13.21h-23.8Zm22.64,12.06h-21.47v-10.91h21.47v10.91Zm-22.64-12.06v13.21h23.8v-13.21h-23.8Zm22.64,12.06h-21.47v-10.91h21.47v10.91Zm-22.64-12.06v13.21h23.8v-13.21h-23.8Zm22.64,12.06h-21.47v-10.91h21.47v10.91Zm-22.64-12.06v13.21h23.8v-13.21h-23.8Zm22.64,12.06h-21.47v-10.91h21.47v10.91Zm-22.64-12.06v13.21h23.8v-13.21h-23.8Zm22.64,12.06h-21.47v-10.91h21.47v10.91Zm-22.64-12.06v13.21h23.8v-13.21h-23.8Zm22.64,12.06h-21.47v-10.91h21.47v10.91Zm-22.64-12.06v13.21h23.8v-13.21h-23.8Zm22.64,12.06h-21.47v-10.91h21.47v10.91Zm-22.64-12.06v13.21h23.8v-13.21h-23.8Zm22.64,12.06h-21.47v-10.91h21.47v10.91Zm-22.64-12.06v13.21h23.8v-13.21h-23.8Zm22.64,12.06h-21.47v-10.91h21.47v10.91Zm-22.64-12.06v13.21h23.8v-13.21h-23.8Zm22.64,12.06h-21.47v-10.91h21.47v10.91Zm-22.64-12.06v13.21h23.8v-13.21h-23.8Zm22.64,12.06h-21.47v-10.91h21.47v10.91Zm-22.64-12.06v13.21h23.8v-13.21h-23.8Zm22.64,12.06h-21.47v-10.91h21.47v10.91Zm-22.64-12.06v13.21h23.8v-13.21h-23.8Zm22.64,12.06h-21.47v-10.91h21.47v10.91Zm-22.64-12.06v13.21h23.8v-13.21h-23.8Zm22.64,12.06h-21.47v-10.91h21.47v10.91Zm-22.64-12.06v13.21h23.8v-13.21h-23.8Zm22.64,12.06h-21.47v-10.91h21.47v10.91Zm-22.64-12.06v13.21h23.8v-13.21h-23.8Zm22.64,12.06h-21.47v-10.91h21.47v10.91Zm-22.64-12.06v13.21h23.8v-13.21h-23.8Zm22.64,12.06h-21.47v-10.91h21.47v10.91Zm-22.64-12.06v13.21h23.8v-13.21h-23.8Zm22.64,12.06h-21.47v-10.91h21.47v10.91Zm-22.64-12.06v13.21h23.8v-13.21h-23.8Zm22.64,12.06h-21.47v-10.91h21.47v10.91Zm-22.64-12.06v13.21h23.8v-13.21h-23.8Zm22.64,12.06h-21.47v-10.91h21.47v10.91Zm-22.64-12.06v13.21h23.8v-13.21h-23.8Zm22.64,12.06h-21.47v-10.91h21.47v10.91Zm-22.64-12.06v13.21h23.8v-13.21h-23.8Zm22.64,12.06h-21.47v-10.91h21.47v10.91Zm-22.64-12.06v13.21h23.8v-13.21h-23.8Zm22.64,12.06h-21.47v-10.91h21.47v10.91Zm-22.64-12.06v13.21h23.8v-13.21h-23.8Zm22.64,12.06h-21.47v-10.91h21.47v10.91Zm-22.64-12.06v13.21h23.8v-13.21h-23.8Zm22.64,12.06h-21.47v-10.91h21.47v10.91Zm-22.64-12.06v13.21h23.8v-13.21h-23.8Zm22.64,12.06h-21.47v-10.91h21.47v10.91Zm-22.64-12.06v13.21h23.8v-13.21h-23.8Zm22.64,12.06h-21.47v-10.91h21.47v10.91Zm-22.64-12.06v13.21h23.8v-13.21h-23.8Zm22.64,12.06h-21.47v-10.91h21.47v10.91Zm-22.64-12.06v13.21h23.8v-13.21h-23.8Zm22.64,12.06h-21.47v-10.91h21.47v10.91Zm-22.64-12.06v13.21h23.8v-13.21h-23.8Zm22.64,12.06h-21.47v-10.91h21.47v10.91Zm-22.64-12.06v13.21h23.8v-13.21h-23.8Zm22.64,12.06h-21.47v-10.91h21.47v10.91Zm-22.64-12.06v13.21h23.8v-13.21h-23.8Zm22.64,12.06h-21.47v-10.91h21.47v10.91Zm-22.64-12.06v13.21h23.8v-13.21h-23.8Zm22.64,12.06h-21.47v-10.91h21.47v10.91Zm-22.64-12.06v13.21h23.8v-13.21h-23.8Zm22.64,12.06h-21.47v-10.91h21.47v10.91Zm-22.64-12.06v13.21h23.8v-13.21h-23.8Zm22.64,12.06h-21.47v-10.91h21.47v10.91Zm-22.64-12.06v13.21h23.8v-13.21h-23.8Zm22.64,12.06h-21.47v-10.91h21.47v10.91Zm-22.64-12.06v13.21h23.8v-13.21h-23.8Zm22.64,12.06h-21.47v-10.91h21.47v10.91Zm-22.64-12.06v13.21h23.8v-13.21h-23.8Zm22.64,12.06h-21.47v-10.91h21.47v10.91Zm-22.64-12.06v13.21h23.8v-13.21h-23.8Zm22.64,12.06h-21.47v-10.91h21.47v10.91Zm-22.64-12.06v13.21h23.8v-13.21h-23.8Zm22.64,12.06h-21.47v-10.91h21.47v10.91Zm-22.64-12.06v13.21h23.8v-13.21h-23.8Zm22.64,12.06h-21.47v-10.91h21.47v10.91Zm-22.64-12.06v13.21h23.8v-13.21h-23.8Zm22.64,12.06h-21.47v-10.91h21.47v10.91Zm-22.64-12.06v13.21h23.8v-13.21h-23.8Zm22.64,12.06h-21.47v-10.91h21.47v10.91Zm-22.64-12.06v13.21h23.8v-13.21h-23.8Zm22.64,12.06h-21.47v-10.91h21.47v10.91Zm-22.64-12.06v13.21h23.8v-13.21h-23.8Zm22.64,12.06h-21.47v-10.91h21.47v10.91Zm-22.64-12.06v13.21h23.8v-13.21h-23.8Zm22.64,12.06h-21.47v-10.91h21.47v10.91Zm-22.64-12.06v13.21h23.8v-13.21h-23.8Zm22.64,12.06h-21.47v-10.91h21.47v10.91Zm-22.64-12.06v13.21h23.8v-13.21h-23.8Zm22.64,12.06h-21.47v-10.91h21.47v10.91Zm28.63-5.74v10.78h26.28v-10.89l-26.28.11Zm25.12,9.63h-23.96v-8.49l23.96-.09v8.58Zm41.22-25.72l-36.11.11v26.76h4.89l5.42-5.36v-10.62h21.03l-21.32,21.1h-10.02v11.08h15.67l26-27.09v-10.48l-5.56-5.5Zm4.4,15.53l-25.34,26.39h-14.01v-8.79h9.34l23.64-23.39h-25v11.29l-4.74,4.69h-3.24v-24.46l34.47-.11,4.88,4.83v9.55Zm-131.29,30.99v32.11h-13.89l-10.48-10.87h-10.2l20.64,21.51h15.36l9.6-10.64v-32.11h-11.03Zm9.86,31.68l-8.95,9.92h-14.34l-18.44-19.21h7l10.48,10.87h15.55v-32.11h8.7v30.53Zm45.86-46.18v-21.13h9.99v-10.78h-20.66v32.19l-14.24,14.08h-16.09v42.69h34.06l10.34-10.5h-34.06v-21.41l34.06-.02v-10.34h-12.4l3.93-3.57h36.18v-11.21h-31.11Zm29.95,10.06h-35.47l-6.47,5.87h14.23v8.04l-34.06.02v23.71h32.46l-8.07,8.2h-32.41v-40.39h15.41l1.73-1.71,13.19-13.04v-31.52h18.34v8.48h-9.99v23.43h31.11v8.91Zm14.79,4.71h-31.79l-5.41,5.35.13,21.36h5.38l5.18-5.17v-10.93h21.01l-21.24,21.01h-10.33v10.87h15.78l26.26-25.96v-11.62l-4.97-4.91Zm3.81,16.05l-25.58,25.3h-14.14v-8.58h9.65l23.56-23.31h-24.97v11.61l-4.5,4.49h-3.74l-.13-19.73,4.74-4.69h30.82l4.29,4.24v10.67Zm-4.07,10.87l-10.54,10.42,5.25,5.2,10.38-.05v-10.54l-5.09-5.03Zm3.93,14.43l-8.74.04-4.09-4.05,8.9-8.8,3.91,3.87.02.02v8.92Zm20.99-31h25.89l-10.43-10.32h-30.89l-.21,11.15,15.64,15.47h15.85l-5.39,5.33h-10.52l-.16-.16-2.6-2.57-8.16-8.08-4.12,4.08-.55.54v11.67l2.15,2.13h0s.53.52.53.52l2.42,2.41h36.44v-27.26h-20.92l-4.97-4.91Zm24.73,31.02h-34.8l-4.42-4.38v-10.73l3.51-3.47,10.44,10.34h11.48l7.72-7.62h-18.18l-14.95-14.8.18-9.54h29.27l8.11,8.03h-25.89l7.29,7.21h20.24v24.96Zm15.77-42.23l-10.58,10.62v27.42l5.23,5.18h25.83l10.61-10.53h-31.09l-.09-21.5h31.18v-11.19h-31.09Zm29.93,10.04h-31.19l.11,23.8h29.44l-8.29,8.23h-24.87l-4.55-4.51v-26.47l9.91-9.95h29.44v8.9ZM31.02,53.14v11.02h10.35v-21.26l-10.35,10.24Zm9.19,9.88h-8.03v-9.4l8.03-7.95v17.35Zm177.03-14.87l-10.29,10.19,6.03,5.96h9.42v-11.05l-5.16-5.1Zm4,15h-7.78l-4.87-4.81,8.65-8.57,4,3.96v9.42ZM76.6,26.98v21.12h10.01v-21.12h-10.01Zm8.85,19.97h-7.69v-18.82h7.69v18.82Zm74.99-25.61v10.78h16.34v-10.78h-16.34Zm15.18,9.63h-14.02v-8.48h14.02v8.48Zm-55.49,52.28v11.48h28.94v-11.48h-28.94Zm27.78,10.33h-26.62v-9.18h26.62v9.18Zm112.94-10.35v11.44h25.81v-11.44h-25.81Zm24.65,10.3h-23.49v-9.15h23.49v9.15Z"/>
  <g>
    <path class="cls-5" d="m155.26,17.96h1.53v-.52h3.48v.52h1.59v-6.31h-6.6v6.31Zm1.53-1.89v-.95h3.48v.95h-3.48Zm3.48-3.1v.91h-3.48v-.91h3.48Z"/>
    <path class="cls-5" d="m150.77,5.88h-.77v10.65h1.5v-1.23h2.67V5.88h-3.41Zm.74,7.95v-2.56h1.16v2.56h-1.16Zm1.16-6.48v2.47h-1.16v-2.47h1.16Z"/>
    <path class="cls-5" d="m161.42,7.78l-.95-.18h2v-1.43h-3.15v-1.02h-1.66v1.02h-2.99v1.43h2.1l-1.01.17c.21.51.39,1.17.47,1.64h-1.82v1.45h8.26v-1.45h-1.93c.21-.43.44-1.02.69-1.63Zm-4.21-.18h2.56c-.12.51-.32,1.18-.5,1.65l.77.15h-3.16l.86-.17c-.08-.45-.3-1.12-.53-1.64Z"/>
    <path class="cls-5" d="m174.61,5.54h-9.14v4.37h9.14v-4.37Zm-1.74,2.93h-5.77v-1.5h5.77v1.5Z"/>
    <path class="cls-5" d="m163.68,12.12h2.64c-.31.99-.68,2.03-1,2.76l1.81.28c.09-.22.18-.47.28-.73h5.26c-.18,1.11-.41,1.71-.69,1.92-.18.12-.36.14-.68.14-.42,0-1.45-.01-2.38-.1.32.44.56,1.1.59,1.58.96.03,1.88.04,2.41,0,.66-.04,1.11-.14,1.53-.54.52-.47.85-1.56,1.14-3.82.04-.22.08-.69.08-.69h-6.74c.09-.27.17-.53.26-.8h8.04v-1.5h-12.55v1.5Z"/>
    <path class="cls-5" d="m182.18,8.42c.15-.36.29-.71.39-1.01.11-.29.31-.77.46-1.13l-2.15-.41c-.03.43-.14.95-.29,1.41-.18.54-.43,1.25-.81,1.89-.53.87-1.43,2.11-2.42,2.84l1.76,1.05c.83-.72,1.67-1.87,2.23-2.89h2.94c-.22,2.86-1.37,4.57-2.84,5.68-.32.28-.81.55-1.31.76l1.88,1.25c2.52-1.57,3.94-4.05,4.2-7.69h1.97c.32,0,.92,0,1.45.04v-1.87c-.46.07-1.1.1-1.45.1h-6.02Z"/>
    <path class="cls-5" d="m188.76,7.51c-.25-.51-.75-1.38-1.1-1.89l-1.1.45c.38.52.81,1.35,1.09,1.9l1.11-.47Z"/>
    <path class="cls-5" d="m188.2,5.44c.39.52.84,1.32,1.13,1.9l1.1-.47c-.25-.48-.75-1.36-1.13-1.87l-1.1.44Z"/>
    <path class="cls-5" d="m194.33,10.47c-.72,0-1.73-.06-2.24-.1v2.18c.53-.04,1.46-.08,2.24-.08h7.49c.58,0,1.29.07,1.63.08v-2.18c-.38.03-.99.1-1.64.1h-7.48Z"/>
    <path class="cls-5" d="m217.57,16.54c-.64-1.53-2.06-4.24-3.06-5.73l-1.73.72c.45.6.96,1.53,1.45,2.51-1.4.17-3.39.4-5.08.55.69-1.85,1.83-5.35,2.28-6.68.21-.62.4-1.13.58-1.54l-2.21-.44c-.06.45-.12.9-.32,1.58-.41,1.43-1.62,5.2-2.4,7.24-.14,0-.27.01-.4.02-.45.01-1.06.03-1.53.01l.33,2.03c.43-.06.96-.12,1.31-.17,1.74-.18,5.98-.62,8.24-.89.26.59.49,1.15.66,1.62l1.88-.83Z"/>
  </g>
  <g>
    <path class="cls-8" d="m149.33,4.9h-.77v10.65h1.5v-1.23h2.67V4.9h-3.41Zm.74,7.95v-2.56h1.16v2.56h-1.16Zm1.16-6.48v2.47h-1.16v-2.47h1.16Z"/>
    <path class="cls-8" d="m159.98,6.8l-.95-.18h2v-1.43h-3.15v-1.02h-1.66v1.02h-2.99v1.43h2.1l-1.01.17c.21.51.39,1.17.47,1.64h-1.82v1.45h8.26v-1.45h-1.93c.21-.43.44-1.02.69-1.63Zm-4.21-.18h2.56c-.12.51-.32,1.18-.5,1.65l.77.15h-3.16l.86-.17c-.08-.45-.3-1.12-.53-1.64Z"/>
    <path class="cls-8" d="m153.83,16.98h1.53v-.52h3.48v.52h1.59v-6.31h-6.6v6.31Zm1.53-1.89v-.95h3.48v.95h-3.48Zm3.48-3.1v.91h-3.48v-.91h3.48Z"/>
    <path class="cls-8" d="m173.17,4.55h-9.14v4.37h9.14v-4.37Zm-1.74,2.94h-5.77v-1.5h5.77v1.5Z"/>
    <path class="cls-8" d="m162.24,11.14h2.64c-.31.99-.68,2.03-1,2.76l1.81.28c.09-.22.18-.47.28-.73h5.26c-.18,1.11-.41,1.71-.69,1.92-.18.12-.36.14-.68.14-.42,0-1.45-.01-2.38-.1.32.44.56,1.1.59,1.58.96.03,1.88.04,2.41,0,.65-.04,1.11-.14,1.53-.54.52-.47.85-1.56,1.14-3.82.04-.22.08-.69.08-.69h-6.74c.09-.27.17-.53.26-.8h8.04v-1.5h-12.55v1.5Z"/>
    <path class="cls-8" d="m186.76,4.46c.39.52.84,1.32,1.13,1.9l1.1-.47c-.25-.48-.75-1.36-1.13-1.87l-1.1.44Z"/>
    <path class="cls-8" d="m187.32,6.52c-.25-.51-.75-1.38-1.1-1.89l-1.1.45c.38.52.81,1.35,1.09,1.9l1.11-.47Z"/>
    <path class="cls-8" d="m180.74,7.43c.15-.36.29-.71.39-1.01.11-.29.31-.77.46-1.13l-2.15-.41c-.03.43-.14.95-.29,1.41-.18.54-.43,1.25-.81,1.89-.53.87-1.43,2.11-2.42,2.84l1.76,1.05c.83-.72,1.67-1.87,2.23-2.89h2.94c-.22,2.86-1.37,4.57-2.84,5.68-.32.28-.81.55-1.31.76l1.88,1.25c2.52-1.57,3.94-4.05,4.2-7.69h1.97c.32,0,.92,0,1.45.04v-1.87c-.46.07-1.1.1-1.45.1h-6.02Z"/>
    <path class="cls-8" d="m192.89,9.49c-.72,0-1.73-.06-2.24-.1v2.18c.53-.04,1.46-.08,2.24-.08h7.49c.59,0,1.3.07,1.63.08v-2.18c-.38.03-.99.1-1.64.1h-7.48Z"/>
    <path class="cls-8" d="m216.13,15.56c-.64-1.53-2.06-4.24-3.06-5.73l-1.73.72c.45.6.96,1.53,1.45,2.51-1.4.17-3.39.4-5.08.55.69-1.85,1.83-5.35,2.28-6.68.21-.62.4-1.13.58-1.54l-2.21-.44c-.06.45-.12.9-.32,1.58-.41,1.43-1.62,5.2-2.4,7.24-.14,0-.27.01-.4.02-.45.01-1.06.03-1.53.01l.34,2.03c.43-.06.96-.12,1.31-.17,1.74-.18,5.98-.62,8.24-.89.26.59.49,1.15.66,1.62l1.88-.83Z"/>
  </g>
</svg>