<svg width="16" height="18" viewBox="0 0 16 18" fill="none" xmlns="http://www.w3.org/2000/svg">
<path d="M10.5002 1V4C10.5002 4.55228 10.9479 5 11.5002 5H14.5002M5.00016 5H7.00016M5.00016 8H11.0002M5.00016 11H11.0002M13.0002 2.5C12.5551 2.10178 12.0933 1.62948 11.8017 1.32273C11.6077 1.11861 11.3396 1 11.058 1H3.49992C2.39536 1 1.49993 1.89542 1.49992 2.99999L1.49985 14.9999C1.49984 16.1045 2.39527 17 3.49984 17L12.4999 17C13.6044 17 14.4999 16.1046 14.4999 15L14.5002 4.39819C14.5002 4.14249 14.4026 3.8967 14.2251 3.71261C13.897 3.3722 13.349 2.8121 13.0002 2.5Z" stroke="#0A090B" stroke-width="1.5" stroke-linecap="round" stroke-linejoin="round"/>
</svg>