<svg width="324" height="194" viewBox="0 0 324 194" fill="none" xmlns="http://www.w3.org/2000/svg">
<g filter="url(#filter0_d_437_2395)">
<rect x="2" y="2" width="310" height="180" rx="30" fill="#1D1D1D" shape-rendering="crispEdges"/>
<rect x="2" y="2" width="310" height="180" rx="30" stroke="black" stroke-width="3" shape-rendering="crispEdges"/>
<g filter="url(#filter1_d_437_2395)">
<mask id="path-2-inside-1_437_2395" fill="white">
<path fill-rule="evenodd" clip-rule="evenodd" d="M157 73.5C153.962 73.5 151.5 75.9624 151.5 79V86.5H144C140.962 86.5 138.5 88.9624 138.5 92C138.5 95.0376 140.962 97.5 144 97.5H151.5V105C151.5 108.038 153.962 110.5 157 110.5C160.038 110.5 162.5 108.038 162.5 105V97.5H170C173.038 97.5 175.5 95.0376 175.5 92C175.5 88.9624 173.038 86.5 170 86.5H162.5V79C162.5 75.9624 160.038 73.5 157 73.5Z"/>
</mask>
<path fill-rule="evenodd" clip-rule="evenodd" d="M157 73.5C153.962 73.5 151.5 75.9624 151.5 79V86.5H144C140.962 86.5 138.5 88.9624 138.5 92C138.5 95.0376 140.962 97.5 144 97.5H151.5V105C151.5 108.038 153.962 110.5 157 110.5C160.038 110.5 162.5 108.038 162.5 105V97.5H170C173.038 97.5 175.5 95.0376 175.5 92C175.5 88.9624 173.038 86.5 170 86.5H162.5V79C162.5 75.9624 160.038 73.5 157 73.5Z" fill="#FF2673"/>
<path d="M151.5 86.5V88.5H153.5V86.5H151.5ZM144 86.5L144 88.5H144V86.5ZM151.5 97.5H153.5V95.5H151.5V97.5ZM162.5 97.5V95.5H160.5V97.5H162.5ZM162.5 86.5H160.5V88.5H162.5V86.5ZM153.5 79C153.5 77.067 155.067 75.5 157 75.5V71.5C152.858 71.5 149.5 74.8579 149.5 79H153.5ZM153.5 86.5V79H149.5V86.5H153.5ZM144 88.5H151.5V84.5H144V88.5ZM140.5 92C140.5 90.067 142.067 88.5 144 88.5L144 84.5C139.858 84.5 136.5 87.8579 136.5 92H140.5ZM144 95.5C142.067 95.5 140.5 93.933 140.5 92H136.5C136.5 96.1421 139.858 99.5 144 99.5V95.5ZM151.5 95.5H144V99.5H151.5V95.5ZM153.5 105V97.5H149.5V105H153.5ZM157 108.5C155.067 108.5 153.5 106.933 153.5 105H149.5C149.5 109.142 152.858 112.5 157 112.5V108.5ZM160.5 105C160.5 106.933 158.933 108.5 157 108.5V112.5C161.142 112.5 164.5 109.142 164.5 105H160.5ZM160.5 97.5V105H164.5V97.5H160.5ZM170 95.5H162.5V99.5H170V95.5ZM173.5 92C173.5 93.933 171.933 95.5 170 95.5V99.5C174.142 99.5 177.5 96.1421 177.5 92H173.5ZM170 88.5C171.933 88.5 173.5 90.067 173.5 92H177.5C177.5 87.8579 174.142 84.5 170 84.5V88.5ZM162.5 88.5H170V84.5H162.5V88.5ZM160.5 79V86.5H164.5V79H160.5ZM157 75.5C158.933 75.5 160.5 77.067 160.5 79H164.5C164.5 74.8579 161.142 71.5 157 71.5V75.5Z" fill="black" mask="url(#path-2-inside-1_437_2395)"/>
</g>
</g>
<defs>
<filter id="filter0_d_437_2395" x="0.5" y="0.5" width="323" height="193" filterUnits="userSpaceOnUse" color-interpolation-filters="sRGB">
<feFlood flood-opacity="0" result="BackgroundImageFix"/>
<feColorMatrix in="SourceAlpha" type="matrix" values="0 0 0 0 0 0 0 0 0 0 0 0 0 0 0 0 0 0 127 0" result="hardAlpha"/>
<feOffset dx="10" dy="10"/>
<feComposite in2="hardAlpha" operator="out"/>
<feColorMatrix type="matrix" values="0 0 0 0 0 0 0 0 0 0 0 0 0 0 0 0 0 0 1 0"/>
<feBlend mode="normal" in2="BackgroundImageFix" result="effect1_dropShadow_437_2395"/>
<feBlend mode="normal" in="SourceGraphic" in2="effect1_dropShadow_437_2395" result="shape"/>
</filter>
<filter id="filter1_d_437_2395" x="138.5" y="73.5" width="39" height="39" filterUnits="userSpaceOnUse" color-interpolation-filters="sRGB">
<feFlood flood-opacity="0" result="BackgroundImageFix"/>
<feColorMatrix in="SourceAlpha" type="matrix" values="0 0 0 0 0 0 0 0 0 0 0 0 0 0 0 0 0 0 127 0" result="hardAlpha"/>
<feOffset dx="2" dy="2"/>
<feComposite in2="hardAlpha" operator="out"/>
<feColorMatrix type="matrix" values="0 0 0 0 0 0 0 0 0 0 0 0 0 0 0 0 0 0 1 0"/>
<feBlend mode="normal" in2="BackgroundImageFix" result="effect1_dropShadow_437_2395"/>
<feBlend mode="normal" in="SourceGraphic" in2="effect1_dropShadow_437_2395" result="shape"/>
</filter>
</defs>
</svg>
